<?xml version="1.0" encoding="utf-8"?>
<!-- Generator: Adobe Illustrator 18.1.1, SVG Export Plug-In . SVG Version: 6.00 Build 0)  -->
<svg version="1.1" id="Layer_1" xmlns="http://www.w3.org/2000/svg" xmlns:xlink="http://www.w3.org/1999/xlink" x="0px" y="0px"
	 viewBox="0 0 858.1 125.3" enable-background="new 0 0 858.1 125.3" xml:space="preserve">
<g>
	<path d="M51.5,2.4c36.1,0,63.7,24.5,63.7,60.9c0,36.6-27.8,59.9-63.5,59.9H0V2.4H51.5z M49.9,96.3c18,0,36.1-9.2,36.1-33
		c0-23.7-18.1-34-36.1-34H29v67H49.9z"/>
	<path d="M190.3,72.3l-14.3,16.1v34.9h-29V2.4h29v33.5v18.6h0.5L189.6,39l30.6-36.6h34.5l-43,48.9l45.4,72h-33.8L190.3,72.3z"/>
	<path d="M378.6,93.8c0-28.7,0.3-42.8,0.3-43h-0.3c-0.2,0.2-6,11-11.9,21.4L355,93.4h-16.2L327,72.5c-6-10.7-11.7-21.6-11.9-21.8
		h-0.5c0,0.2,0.3,14.3,0.3,43v29.5h-29V2.4h30.7l30.4,54h0.5l30.6-54h29.5v120.9h-29V93.8z"/>
</g>
<g>
	<path d="M452.5,2.4h6.7v114.5h68.2v6.4h-74.9V2.4z"/>
	<path d="M563.5,85.1l-16.9,38.2h-7.1L593.2,2.4h6.7l53.7,120.9h-7.1l-16.9-38.2H563.5z M611.2,43.7c-5.2-11.6-14.3-33.3-14.5-33.5
		h-0.2c-0.2,0.2-9.5,21.9-14.5,33.5l-15.9,35.4h60.8L611.2,43.7z"/>
	<path d="M727.9,58.7c11,0.9,30,8.8,30,31.6c0,21.4-15.2,33-40.1,33h-44.4V2.4h39.2c22.3,0,35.7,11.7,35.7,28.8
		c0,17.1-10.9,25-20.5,26.9V58.7z M713.4,56.3c16.2,0,28.5-7.9,28.5-24.3c0-14.3-11.2-23.5-30.2-23.5h-31.4v47.8H713.4z M718,117.2
		c19.3,0,33.1-8.5,33.1-26.8c0-18.5-16.1-28.3-33.7-28.3h-37.3v55.1H718z"/>
	<path d="M778.5,88.9c0.9,21.4,18.1,30.2,39.4,30.2c20.9,0,33.5-8.6,33.5-26.4c0-24.2-22.8-25.7-37.8-29.2
		c-16.6-3.6-37.8-8.6-37.8-32.5C775.7,11.7,789.5,0,814,0c21.4,0,37.3,9,42,29.4l-6.4,1.7C846.1,15.5,834.9,6.2,814,6.2
		c-20.9,0-31.6,9.2-31.6,24.3c0,19,16.9,23.7,34.4,27.1c18.1,3.5,41.3,7.9,41.3,34.9c0,21.8-15.2,32.8-40.7,32.8
		c-19.9,0-43-6.9-45.2-34.7L778.5,88.9z"/>
</g>
</svg>
